/* XPM */
static char *b68349560ca04c50d9cc469ef6122b7fypyBH91ukAu0eDOf[] = {
/* columns rows colors chars-per-pixel */
"32 32 129 2 ",
"   c None",
".  c #00050F",
"X  c #00060F",
"o  c #000714",
"O  c #000715",
"+  c #000814",
"@  c #000815",
"#  c #000919",
"$  c #000A19",
"%  c #00091A",
"&  c #000A1A",
"*  c #000C1F",
"=  c #000C20",
"-  c #000E25",
";  c #000E26",
":  c #00102B",
">  c #00112B",
",  c #00102C",
"<  c #00112C",
"1  c #001332",
"2  c #001333",
"3  c #001334",
"4  c #001539",
"5  c #001639",
"6  c #00163A",
"7  c #001840",
"8  c #001940",
"9  c #001841",
"0  c #001941",
"q  c #001942",
"w  c #001B47",
"e  c #001B48",
"r  c #001B49",
"t  c #001C48",
"y  c #001C49",
"u  c #001E4F",
"i  c #001E50",
"p  c #001F50",
"a  c #002156",
"s  c #002057",
"d  c #002157",
"f  c #002158",
"g  c #07275B",
"h  c #00245E",
"j  c #00245F",
"k  c #07275C",
"l  c #002460",
"z  c #002766",
"x  c #002667",
"c  c #002767",
"v  c #002768",
"b  c #00296E",
"n  c #002A6E",
"m  c #002A6F",
"M  c #002C76",
"N  c #002D76",
"B  c #002D77",
"V  c #002E77",
"C  c #002D78",
"Z  c #00307E",
"A  c #00307F",
"S  c #304364",
"D  c #344867",
"F  c #003386",
"G  c #003387",
"H  c #003388",
"J  c #00368E",
"K  c #00368F",
"L  c #00378F",
"P  c #003690",
"I  c #003996",
"U  c #003997",
"Y  c #003A97",
"T  c #003998",
"R  c #003C9E",
"E  c #003C9F",
"W  c #003CA0",
"Q  c #003FA6",
"!  c #003FA7",
"~  c #375B94",
"^  c #0040A7",
"/  c #0042AD",
"(  c #0042AE",
")  c #0042AF",
"_  c #0043AF",
"`  c #104BAB",
"'  c #0045B5",
"]  c #0045B6",
"[  c #0048BC",
"{  c #0048BD",
"}  c #0048BE",
"|  c #0A4DB8",
" . c #0E4FBA",
".. c #415982",
"X. c #607496",
"o. c #5779B0",
"O. c #004AC3",
"+. c #004BC3",
"@. c #004AC4",
"#. c #004BC4",
"$. c #004BC5",
"%. c #004DCB",
"&. c #004ECB",
"*. c #004DCC",
"=. c #004FD1",
"-. c #004FD2",
";. c #0050D1",
":. c #0050D2",
">. c #0052D8",
",. c #0052D9",
"<. c #0054DE",
"1. c #0055DE",
"2. c #0054DF",
"3. c #0055DF",
"4. c #0056E4",
"5. c #0057E4",
"6. c #0059E9",
"7. c #0059EA",
"8. c #4779CB",
"9. c #6980A6",
"0. c #97A3B7",
"q. c #B5C6E1",
"w. c #C5CCD6",
"e. c #C9D1DD",
"r. c #E7ECF4",
"t. c #F3F5F7",
"y. c #F7F9FB",
"u. c #F7F9FC",
"i. c white",
/* pixels */
"                        X X . . X . . X                         ",
"                  o + + o o o o o o o o o o o                   ",
"              $ $ $ $ $ $ $ $ i.i.$ $ $ % $ $ * $               ",
"            * * * = = = * * * i.i.= = = * * = = = =             ",
"          - - - - - - - - - - - - - - - - : - - ; ; -           ",
"        : : , , : , , , , , , , , , , , , : , , , , , ,         ",
"      2 2 2 2 2 2 2 2 2 3 2 2 2 3 3 3 2 2 3 2 3 3 3 3 3 3       ",
"    5 5 5 5 5 5 5 5 5 5 5 5 5 5 5 5 5 5 5 5 5 5 6 6 6 6 6 5     ",
"    8 8 i.6 8 8 8 8 9 9 9 6 w D S 8 8 8 0 0 0 0 8 8 8 i.8 8     ",
"  w w i.i.w t e w w w w w w w e w.e e e w y y y t t e i.i.t e   ",
"  u u i.0.u u u u u i i u u u u i.i i i u i u u i i i t.i.i i   ",
"  s s s s s s s s s s X.g i.i.i...i.i.k s i.a a f f f f s f f   ",
"h h j j j j j j h h h l h l j j i.h l h e.l j g j j j j l l l l ",
"c z c c c c c c c i.c c i.c c c i.c c v c c o.z c c c c v z v v ",
"n n n n n n n n n i.i.i.i.M n n i.M n i.i.i.i.n n n M n n n n M ",
"N N N N N N N N N N N N y.N N N i.N C N ~ N i.N N N N C N N N N ",
"Z A A A C F C C F C F C A A A A i.C F C C F C F C F C F C F C F ",
"F G G G G H H F F F F F F F F o.i.F H H H F H H F F H F H H F F ",
"H L L H L L L L L L L L L i.i.i.i.r.i.L L L L L P K P L L L K P ",
"U U U U U U U U P U i.i.i.i.i.i.i.i.i.i.q.i.U U U U U U U T U U ",
"  E E E E E E E E E E y.u.u.u.u.u.u.u.u.u.u.E W E W W W E W W   ",
"  ^ ^ ^ ` Q Q Q Q Q Q Q Q Q Q Q Q i.Q i.Q i.Q Q Q Q ^ Q Q ! !   ",
"  / i.i.i.i.( ( ( ( ( ( ( ( ( ( ( i.( i.( i.( ' ' ( i.i.i.i.'   ",
"    ' i.i.' ' ' ' ' ' ' ' ' ' ' '  .' | ' 8.' ' ' ' ' i.i.'     ",
"    } } [ } [ [ [ } i.i.i.i.i.i.i.i.i.i.i.i.} } { { } } } }     ",
"      @.O.O.O.+.O.O.O.O.@.@.@.O.@.@.@.@.@.@.O.@.@.@.@.@.@.      ",
"        %.*.%.%.%.%.%.%.%.%.%.%.%.%.%.%.*.%.%.%.%.*.%.*.        ",
"          :.*.:.-.-.-.-.:.:.:.:.:.:.:.-.:.:.:.-.-.:.:.          ",
"            ,.>.,.>.>.>.>.>.>.,.>.>.,.>.>.>.>.,.,.,.            ",
"              1.<.<.<.<.1.<.i.i.i.i.1.1.4.1.<.1.1.              ",
"                  5.5.5.4.4.5.i.i.5.5.5.5.5.5.                  ",
"                        7.7.7.7.7.7.7.7.                        "
};
