/* XPM */
static char *b691ff5dc1e941f4fd43db129705be20cVwM3hAVTGsvzUVG[] = {
/* columns rows colors chars-per-pixel */
"16 16 133 2 ",
"   c None",
".  c #000814",
"X  c #020915",
"o  c #030A16",
"O  c #000B1D",
"+  c #000C1F",
"@  c #000F29",
"#  c #001029",
"$  c #00102A",
"%  c #00102B",
"&  c #07172F",
"*  c #001536",
"=  c #001537",
"-  c #081730",
";  c #021638",
":  c #05193B",
">  c #071C3E",
",  c #0B1F3F",
"<  c #001A44",
"1  c #001A45",
"2  c #041E48",
"3  c #051F48",
"4  c #102443",
"5  c #122544",
"6  c #002053",
"7  c #002054",
"8  c #002055",
"9  c #343A42",
"0  c #383D46",
"q  c #20375C",
"w  c #002563",
"e  c #002663",
"r  c #002664",
"t  c #14376F",
"y  c #002C72",
"u  c #002C73",
"i  c #002C74",
"p  c #173971",
"a  c #1B3D74",
"s  c #1E3F75",
"d  c #1F4177",
"f  c #314668",
"g  c #204177",
"h  c #214278",
"j  c #234378",
"k  c #324C76",
"l  c #344E78",
"z  c #38527B",
"x  c #3A527B",
"c  c #003282",
"v  c #003283",
"b  c #003284",
"n  c #003892",
"m  c #003893",
"M  c #003894",
"N  c #003DA1",
"B  c #003EA2",
"V  c #003EA3",
"C  c #1B4282",
"Z  c #234986",
"A  c #2F538E",
"S  c #345790",
"D  c #3B5D94",
"F  c #3F6096",
"G  c #3A609F",
"H  c #0844A5",
"J  c #0A46A7",
"K  c #1C53AD",
"L  c #1E55AD",
"P  c #0044B2",
"I  c #0044B3",
"U  c #0547B3",
"Y  c #0447B4",
"T  c #3D67AC",
"R  c #455C82",
"E  c #465D82",
"W  c #475D82",
"Q  c #51678A",
"!  c #566B8D",
"~  c #4A699C",
"^  c #4B6A9C",
"/  c #5F7393",
"(  c #5778AD",
")  c #577CB7",
"_  c #0049C0",
"`  c #0049C1",
"'  c #004AC1",
"]  c #004ECD",
"[  c #004ECE",
"{  c #004FCE",
"}  c #004FCF",
"|  c #0D53C5",
" . c #0250CF",
".. c #0351CF",
"X. c #1E5FC9",
"o. c #1F5FC9",
"O. c #0053D9",
"+. c #0053DA",
"@. c #0053DB",
"#. c #0054DC",
"$. c #0255DC",
"%. c #0355DC",
"&. c #336DCC",
"*. c #346ECE",
"=. c #0057E5",
"-. c #0058E6",
";. c #0058E7",
":. c #467CD3",
">. c #497ED4",
",. c #7A889D",
"<. c #7F8CA1",
"1. c #5B86CD",
"2. c #688DC9",
"3. c #7597CE",
"4. c #658ED0",
"5. c #799AD0",
"6. c #7A9AD0",
"7. c #548FEF",
"8. c #5690F0",
"9. c #75A2EB",
"0. c #7AA5EC",
"q. c #8F949C",
"w. c #9398A0",
"e. c #9AA4B5",
"r. c #9EA8B8",
"t. c #89A9DB",
"y. c #8EACDD",
"u. c #A4B7D7",
"i. c #A8C0E5",
"p. c #ADC3E6",
"a. c #BAC9E1",
"s. c #E4EAF4",
"d. c #E8EDF5",
/* pixels */
"          . . 9 0 o .           ",
"      + O O + q.w.O O O +       ",
"    $ @ $ $ @ - - $ $ $ @ @     ",
"  : 5 * * * * ; , * * * ; 4 ,   ",
"  ,.r.3 < < < q f < < < 2 e.<.  ",
"7 k x 6 6 W R ! / W Q 7 7 z l 7 ",
"e e e e p g s a h t h h r r r r ",
"y y u u S ~ D C Z S ~ F i i i i ",
"v v v v v v v G ( b v v b b b b ",
"m m m m m T u.s.s.a.) M M M M M ",
"M J L V V 2.6.6.6.6.3.V V K J V ",
"  t.p.U P 1.4.4.4.4.4.I Y i.y.  ",
"  *.o.' ' :.>.>.>.>.>.| ' X.*.  ",
"    } } } } } } ..} } } } }     ",
"      +.+.+.%.9.0.#.#.#.+.      ",
"          =.;.8.8.;.=.          "
};
