/* XPM */
static char *d5c2703f881d4c73b73d9c94725aef3eqG86fmjMRDgNngFG[] = {
/* columns rows colors chars-per-pixel */
"64 64 103 2 ",
"   c None",
".  c #00050E",
"X  c #000712",
"o  c #000815",
"O  c #000A1B",
"+  c #000D24",
"@  c #000F28",
"#  c #00112C",
"$  c #001333",
"%  c #00163A",
"&  c #00183F",
"*  c #001A44",
"=  c #001D4C",
"-  c #001F51",
";  c #002055",
":  c #00225B",
">  c #353F4F",
",  c #233553",
"<  c #22385B",
"1  c #002563",
"2  c #002768",
"3  c #00296B",
"4  c #0B306B",
"5  c #1A396A",
"6  c #002B73",
"7  c #002E7B",
"8  c #00307D",
"9  c #183C76",
"0  c #133C7F",
"q  c #3E4E68",
"w  c #2A4571",
"e  c #384E71",
"r  c #49505A",
"t  c #003283",
"y  c #00358B",
"u  c #003791",
"i  c #003895",
"p  c #0B3F95",
"a  c #003B9B",
"s  c #003EA3",
"d  c #003FA8",
"f  c #1B4C9C",
"g  c #3D5C8F",
"h  c #29549C",
"j  c #0040A7",
"k  c #0041AB",
"l  c #124AA7",
"z  c #1C53AE",
"x  c #0044B3",
"c  c #0047BA",
"v  c #0048BE",
"b  c #3B64A7",
"n  c #5E7499",
"m  c #4A73B7",
"M  c #607BA9",
"N  c #004AC4",
"B  c #004DCB",
"V  c #004FD0",
"C  c #0051D5",
"Z  c #0053DB",
"A  c #2B67CA",
"S  c #0056E3",
"D  c #0058E6",
"F  c #0059E9",
"G  c #7C889C",
"H  c #7384A0",
"J  c #7889A5",
"K  c #768DB2",
"L  c #788FB3",
"P  c #7795C7",
"I  c #6893D9",
"U  c #7E9ED3",
"Y  c #568CE4",
"T  c #548FF0",
"R  c #8B99B0",
"E  c #A5AEBD",
"W  c #8BAADD",
"Q  c #9BB2D7",
"!  c #A0ADC3",
"~  c #A3B4CF",
"^  c #ABB7CB",
"/  c #B7BFCB",
"(  c #B6BFCC",
")  c #ABBEDC",
"_  c #93B2E4",
"`  c #BCCAE1",
"'  c #C3D0E4",
"]  c #D3D9E2",
"[  c #D4DFF2",
"{  c #D5E0F2",
"}  c #DEE9F9",
"|  c #E3E7ED",
" . c #E7ECF4",
".. c #EBF2FD",
"X. c #F2F5FA",
"o. c #F3F6FA",
"O. c #F2F6FB",
"+. c #F3F7FE",
"@. c #F7F8F9",
"#. c #F8F9FA",
"$. c #FCFDFD",
"%. c white",
"&. c white",
/* pixels */
"                                                      . . . . . . . . . .                                                       ",
"                                              X X . . X X X . X . X . X X X . X X                                               ",
"                                        X o X X o X X o X X X %.%.X o X X X X o o X X o                                         ",
"                                    o o o o o o o o o o o o o %.%.o o o o o o o o o o o o o                                     ",
"                                O o O o O o o O o O O O O %.%.%.%.%.%.r O o O o O O o o O o O O                                 ",
"                            O O O O O O O O O O O O O O O O %.%.%.%.O O O O O O O O O O O O O O O O                             ",
"                          O O O O O O O O O O O O O + O O O %.%.%.%.O O O O O + O O O O O O O O + O +                           ",
"                        + O + + + + O + + + + + + O + O O + %.+ + %.> + + + O + + O + + + + + O O + + O                         ",
"                    + + + + + + + + + + + + + + + + + + + %.+ + + + %.+ + + + + + + + + + + + + + + + + + +                     ",
"                  @ @ @ + @ @ + @ + + @ + @ @ + @ @ @ + @ + @ + + + @ @ @ @ @ @ @ @ @ @ @ # @ @ @ # + # # + #                   ",
"                @ # # # # # @ # @ # @ @ # # # # # # # # # # # # # # # # # # # # # # @ # # # # # # # # # # # # #                 ",
"                # # # # # # # # $ # # @ # # # # # # # # # # # # # # # # # # # # # # # # # # # # # # # # # # # #                 ",
"              $ $ # $ $ $ $ $ # $ $ $ $ # $ $ $ $ $ # $ $ $ $ $ $ # $ $ # $ $ $ $ # $ $ # $ $ $ $ $ $ $ $ $ $ $ $               ",
"            $ $ $ $ $ $ $ $ $ $ $ $ $ $ $ $ $ $ $ $ $ $ $ $ $ $ $ $ $ $ $ $ $ $ $ $ $ $ $ $ % $ $ $ $ $ $ $ $ $ $ $             ",
"          $ $ % q $ % % $ % % % % $ % % % $ % % $ % % $ % % $ % % % % % % % % % % % % % % $ % $ % $ % $ $ % $ , % % $           ",
"          & % % %.% % % % % % % % % % & % % % % % & % % % % % % %.% % % % % % % % % % % % & % & % & % & & % & %.% & &           ",
"        & & & G %.% & & & & & & & % & & & & & & & & & & & & & %.& & & & & % & & & & & & & & & & & & & & * % & %.%.* % *         ",
"        %.%.%.%.%.%.%.%.%.* * * * * * * * & & * * * * * * & * < * %.* * * * * * * * * * & * * * * * * E %.%.%.%.%.%.%.%.        ",
"      * * @.%.%.%.%.%.* * * * * * * = * * * * * * * * * * * = %.* / * * * * * = * * * * * * * * * * * * * %.%.%.%.%.#.* *       ",
"      = = = e %.%.%.= = = * = = = * = * = = = = * = = = = * = * %.* = = = = * = * = = = = = = = = = = = = = %.%.%.%.= = =       ",
"    = = = = %.%.%.%./ = = = = = = = = = = = = - = = = = = - = = %.= = - = = ; = - = = = = - = = = = = = - = %.%.%.%.- = = =     ",
"    ; = - = %.- - ; %.= ; - - ; ; = ; - - = R ; - - ; ; R R R %.- %.R R = ; - ; ; - %.; ; = ; - ; ; - - - %.H - - %.- - ; -     ",
"  ; ; ; ; - ; ; ; ; ; ; ; ; ; ; ; ; ; ; ; %.J %.%.%.] ] - : - ; ; %.; ; ] ] ] %.%.%.; ; ; ; ; ; ; ; ; ; ; ; ; - ; ; w ; ; - :   ",
"  : : ; : : ; : : ; : ; : ; : : : : : ; : %.: ; : ; : : ; : : | %.; : : : ; : : ; %.: 5 : : : : : ; : : : : : : : : : : : : :   ",
"  : : : : : : : : : : : : : : : : : : : n : : %.: : : : : : 1 : : : : : : : : : : : 1 ! : : 1 : : : : : : : : : : : : : 1 : :   ",
"  1 1 1 1 : 1 1 1 1 : 1 1 : 1 1 : 1 1 1 n 1 1 : ^ 1 1 2 : 1 1 1 1 1 1 : 1 1 1 2 %.: 1 1 %.1 : 1 2 1 1 : 1 1 1 1 1 1 1 1 1 1 1   ",
"  1 1 1 1 1 1 2 1 1 2 2 1 1 2 1 2 1 2 %.1 1 1 2 4 1 1 1 1 1 1 2 2 2 1 2 2 1 2 $.1 2 1 2 2 1 2 1 2 1 1 2 2 2 2 1 2 1 2 1 1 2 2   ",
"2 2 2 2 2 2 3 3 2 2 2 2 2 2 2 3 2 2 9 2 2 2 2 3 3 %.3 2 3 3 2 3 2 2 2 2 2 2 2 2 3 2 3 2 2 %.2 2 3 2 3 2 2 2 3 3 3 3 2 2 3 2 3 3 ",
"3 3 3 3 3 3 3 3 3 3 3 3 3 6 3 3 3 3 %.3 3 3 3 3 3 3 g 3 6 3 3 3 3 3 3 3 3 3 %.3 3 3 6 3 3 3 %.3 3 3 3 6 3 3 3 3 3 3 3 3 3 3 3 3 ",
"3 6 6 3 6 6 3 6 3 6 3 6 3 6 6 6 6 3 L 3 6 6 6 6 6 6 L 6 3 6 6 6 6 6 6 6 6 3 %.6 6 6 6 6 6 6 %.6 6 3 6 6 6 6 6 6 6 6 6 6 6 6 6 6 ",
"6 6 6 6 6 6 6 6 6 6 6 6 6 6 7 6 6 6 M 0 6 6 6 6 6 %.6 6 6 6 6 6 6 6 6 6 6 6 6 %.6 6 6 6 6 %.6 6 6 6 6 6 6 7 7 6 6 7 6 6 7 6 6 7 ",
"7 7 7 7 7 6 7 7 8 6 8 8 8 6 8 6 7 7 6 8 ~ %.%.%.6 8 7 6 8 7 7 7 7 8 7 7 7 7 7 7 ~ %.%.%.7 7 7 8 8 6 8 8 6 7 7 6 7 8 7 7 7 6 7 7 ",
"7 7 7 8 7 7 8 8 7 7 7 7 7 7 7 8 7 7 7 7 7 7 7 7 7 7 t 7 8 7 8 7 8 8 7 7 8 7 8 7 7 7 8 7 7 7 7 7 t 7 7 7 7 7 7 7 t 7 7 t 7 7 7 t ",
"t t t t t 8 t 8 t t t t t t 8 t t t t t t t t t t 7 t t t 8 t t t t t t t 8 t t t t t t t t t t t t t t t t t t t t t t t t t t ",
"t t t t t t 8 t t t t t t t t t t t t t t t t t t t t t t t t t %.t t t y t t t t t y t t t t t t t t t t t t y t t t t y t t t ",
"t y t y y y y y y y t y y y y y y y y t y y y y y y y y y h %.%.%.%.%.y y y y y y y y y y y y y y y y y y y y y y y y y y y y y ",
"y y y y y y y y y y y y y y y y y y y y y y y y y y y +.%.%.b %.%. .` %.%.' y y y y u y y y i y y u y y u y y y u y u y y y u y ",
"  u u i u u i u y i y i y i i i u u u i u u u u u %.%.%.f %.%.%.%.%.%.%.p %.%.%.u u u u i y i y u u u u u i u u u u u u u u i   ",
"  i i i i i i i i i i i i i i i i u i i i i %.%.%.i %.%.%.%.%.%.%.%.%.%.%.%.%.) %.%.P i i i i i i i i u i i i i i i i i i i i   ",
"  a i a a i a i a i a a i a a a a a a a a %.%.Q %.%.%.%.%.%.%.%.%.%.%.%.%.%.%.%.%.m %.%.a a a a a a a a a a a a a a i a a a a   ",
"  a a a a a a a a a a a a a a a a a a a a %.%.%.%.%.%.%.%.%.%.%.%.%.%.%.%.%.%.%.%.%.%.X.a a s a a a a a a a a a a a a a a a a   ",
"  s s a s s s s s a s s s s a s a s s a s %.%.s s %.%.s a %.%.s s s %.l s s %.a s s %.a s a s s s s d a s s d a s s s s s s d   ",
"    d s s s s d %.d s d s s s s d d s d d z %.s s s %.d d s %.s d s %.s s s %.d s d %.d s d d d d d s d d d d %.j d s s s d     ",
"    d j d j j d %.j j k j k k j d d d j j d %.j j j %.k k d %.k j j %.d j d %.k j j %.k d k k k j j k j k j k %.U k j k k k     ",
"      k k k k %.%.k k k k k k k k k k k k k %.k k k %.k k k %.k k k %.k k k %.k k k %.k k k k k k k x k k x k %.%.k x k k       ",
"      x k %.%.%.%.%.%.{ x x k x k x x x k x %.x k x %.x x k %.x x x %.x k x %.x x x %.x x x k x x k k x [ %.%.%.%.%.%.x x       ",
"        x x W %.%.%.x x x x x x x x x x x x %.x x x %.x x x %.x x x %.x x x %.x x x %.x x x x x x x x x x x %.%.%.%.x x         ",
"        c x %.%.%.%.c x c x c c x c c x c %.%.%.%.%.%.%.%.%.%.%.%.%.%.%.%.%.%.%.%.%.%.X.c x c c c c c c x c %.%.%.%.x c         ",
"          c %.c c %.%.c c c c c c c c c %.%.%.%.%.%.%.%.%.%.%.%.%.%.%.%.%.%.%.%.%.%.%.%.%.v c c c c c c c %.%.c c %.c           ",
"          v v v v v A c v v c N c c N c _ _ _ _ _ _ _ _ _ _ _ _ _ _ _ _ _ _ _ _ _ _ _ _ _ v v v N v v N v A v N v v I           ",
"            N N N N N N N N N N N N N N N N N N N N N N N N N N N N N N N N N N N N N N N N N N N N N N N N N N N N             ",
"              N N N N N N N N N N N N N N N N N N N N N N N N N N N N N N N N N N N N N N N B N N N N N N N N B N               ",
"              B B B B B B B B N B B B B B B B B B B B B B B B B B B B B B B B B B B B B B B B B B B B B B B B B B               ",
"                B B B B B B B B B B B B B B B B B B B B B B B B B B B B B B B B B B B B V B B B B B B B B B B B                 ",
"                  B V V V V V V V V V V B V V V V V V B V B V V C B V V B C V B C B C B B V V V V C B V V V V                   ",
"                    C V C V C C V C C V C C V C C V C C C C C C C C C C C C C C C C C C C C C C C C C C C C                     ",
"                      Z C C C C C C C C C Z Z C V Z V Z V C C Y } C C C Z C C C Z C C C C Z C C C C Z C Z                       ",
"                          Z Z Z Z Z Z Z Z Z Z Z Z Z Z Z Z Z Z %.%.Z Z Z Z Z Z Z Z Z Z Z Z Z Z Z Z Z Z                           ",
"                            Z Z Z Z Z Z Z Z Z Z Z Z Z Z %.%.%.%.%.%.%.%.Z Z Z Z Z Z S Z Z Z Z Z Z Z                             ",
"                                Z S S S Z S S Z S S S Z S %.%.%.%.%.%.Z S S Z S S Z S Z Z S S S                                 ",
"                                    S S S S S S S S S S S S %.%.%.%.S S D S S S S S S S S D                                     ",
"                                        D D D D D D D D D F %.%.%.%.D D D D D D D D D D                                         ",
"                                            F D F F D F F T +.F F ..%.F F F F F F F                                             ",
"                                                    F F F F F F F F F F F F                                                     "
};
